<?xml version="1.0" encoding="utf-8"?>
<!-- Generator: Adobe Illustrator 26.3.1, SVG Export Plug-In . SVG Version: 6.00 Build 0)  -->
<svg version="1.1"
	 id="图层_1" image-rendering="optimizeQuality" text-rendering="geometricPrecision" shape-rendering="geometricPrecision"
	 xmlns="http://www.w3.org/2000/svg" xmlns:xlink="http://www.w3.org/1999/xlink" x="0px" y="0px" viewBox="0 0 200 200"
	 style="enable-background:new 0 0 200 200;" xml:space="preserve">
<style type="text/css">
	.st0{fill-rule:evenodd;clip-rule:evenodd;fill:#09559D;}
	.st1{fill:#09559D;}
</style>
<g id="鍥惧眰_x0020_1">
	<path class="st0" d="M71.7,66.9l-8.7,4.9l-7.9-25c0,0-10.3-23.5-2.3-24.4c7.9-0.9,29.7,25,32,26.7c2.3,1.7,16.1,15.8,16.1,15.8l5,5
		l-13-11.3c0,0-19.6-16.9-21.9-18.3c-2.4-1.3-7.4-4-7,1C64.5,46.5,71.7,66.9,71.7,66.9z M135.3,116.1l-7.2,9.3
		c0,0,12.8,36.5,12.9,36.9c0.1,0.4,1,6.1-2.1,5.6s-2.1,0.1-9.5-5.6l-20.9-16.2l28.8,26c0,0,10.6,9.2,12.3,3.6
		c1.7-5.6,1.5-8.6-0.4-16.2C147.1,152,135.3,116.1,135.3,116.1z"/>
	<path class="st0" d="M2,112.5l73.7-39.8c0,0,12.2,9.3,40.8,2.9l21.9-7.5L198,35.6L82.7,166.1c0,0,8.3-14.3,6.4-33.8l14.4-13.1
		l6.3,4.5l13.8-11.8l-0.7-5.3l-2.8-2l75.4-66.9l-82.2,61.7l-9.1-6l-13.5,10.1l0.2,6.3l4.8,3.5l-12,9.5c0,0-10.3-21.5-52-17.9
		c0,0-15.8,1.8-27.6,7.7l-1.8,0.6L2,112.5L2,112.5z"/>
	<path class="st1" d="M106.7,108.4c-0.3,0-0.6,0-1,0c-3-0.2-6-1.3-5.9-3.2c0.1-1.6,2.7-2.3,5.3-2.3c0.3,0,0.7,0,1,0
		c1.5,0.1,3,0.4,4,0.9c1.2,0.6,1.9,1.4,1.8,2.2C111.8,107.7,109.2,108.4,106.7,108.4z M105.1,104.1c-2.6,0-4,0.8-4,1.2
		c0,0.5,1.6,1.6,4.8,1.9c0.3,0,0.6,0,0.9,0c2.6,0,4-0.8,4-1.2c0-0.2-0.3-0.6-1.1-1c-0.9-0.4-2.2-0.7-3.6-0.8
		C105.7,104.1,105.4,104.1,105.1,104.1z"/>
	<path class="st1" d="M108.9,119v-2.3c-1.8-1.1-12.4-9.2-15.3-11.4l-0.2,2.9L108.9,119z M109.2,120.1h-0.3v-0.2l-16.1-11.2l-0.2-0.1
		l0-0.2l0.2-3.7l-0.4-0.3l0.4-0.3l11.2-8.5l0.2-0.2l0.2,0.2l15.9,11.9l0.4,0.3l-0.2,0.1l0.4,3.2l0,0.2l-0.2,0.1l-11.2,8.8l-0.2,0.2
		L109.2,120.1C109.3,120.1,109.2,120.1,109.2,120.1z M109.7,116.5v2.7l10.6-8.3l-0.3-2.5C118.2,109.9,111.6,115.2,109.7,116.5z
		 M104.4,96.4l-10.6,8c2.4,1.9,15.3,11.6,15.4,11.6c0.1,0,8.6-6.7,10.5-8.3L104.4,96.4z"/>
	<path class="st1" d="M105.5,111.9h-0.2c-0.3-0.1-0.8-0.2-1.3-0.8c-0.9-1.1-1.2-3.3-0.9-5.8c0.4-2.8,1.6-5.9,3.5-5.9
		c0.7,0.1,1.7,0.5,2.2,2.4c0.3,1.2,0.4,2.7,0.2,4.2C108.6,108.8,107.4,111.9,105.5,111.9z M106.6,101c-0.4,0-1.5,1.5-1.9,4.5
		c-0.3,2.3,0.1,4,0.6,4.6c0.1,0.1,0.2,0.2,0.2,0.2h0c0.4,0,1.5-1.5,1.9-4.5c0.2-1.3,0.1-2.6-0.1-3.6C107,101.3,106.7,101,106.6,101
		C106.6,101,106.6,101,106.6,101z"/>
	<path class="st0" d="M106,105c0.4,0,0.8,0.4,0.8,0.8s-0.3,0.8-0.8,0.8s-0.8-0.3-0.8-0.8S105.6,105,106,105z"/>
	<path class="st1" d="M106,106.9c-0.6,0-1.1-0.5-1.1-1.1s0.5-1.1,1.1-1.1s1.1,0.5,1.1,1.1S106.6,106.9,106,106.9z M106,105.3
		c-0.3,0-0.5,0.2-0.5,0.5c0,0.3,0.2,0.5,0.5,0.5s0.5-0.2,0.5-0.5C106.5,105.5,106.3,105.3,106,105.3z"/>
</g>
</svg>
